# AST/ASF file generated using VICON BodyLanguage
# -----------------------------------------------
:version 1.10
:name VICON
:units
  mass 1.0
  length 0.45
  angle deg
:documentation
   .ast/.asf automatically generated from VICON data using
   VICON BodyBuilder and BodyLanguage model FoxedUp or BRILLIANT.MOD
:root
   order TX TY TZ RX RY RZ
   axis XYZ
   position 0 0 0  
   orientation 0 0 0 
:bonedata
  begin
     id 1 
     name lhipjoint
     direction 0.567149 -0.783011 0.255413 
     length 2.28399 
     axis 0 0 0  XYZ
  end
  begin
     id 2 
     name lfemur
     direction 0.34202 -0.939693 0  
     length 7.34031  
     axis 0 0 20  XYZ
    dof rx ry rz
    limits (-160.0 20.0)
           (-70.0 70.0)
           (-60.0 70.0)
  end
  begin
     id 3 
     name ltibia
     direction 0.34202 -0.939693 0   
     length 6.9833   
     axis 0 0 20   XYZ
    dof rx
    limits (-10.0 170.0)
  end
  begin
     id 4 
     name lfoot
     direction 0.136498 -0.375025 0.91691   
     length 2.33665   
     axis -90 7.62852e-016 20   XYZ
    dof rx rz
    limits (-45.0 90.0)
           (-70.0 20.0)
  end
  begin
     id 5 
     name ltoes
     direction 1.5367e-011 -4.21617e-011 1   
     length 1.15039   
     axis -90 7.62852e-016 20   XYZ
    dof rx
    limits (-90.0 20.0)
  end
  begin
     id 6 
     name rhipjoint
     direction -0.602854 -0.758518 0.247423   
     length 2.35775  
     axis 0 0 0  XYZ 
  end
  begin
     id 7 
     name rfemur
     direction -0.34202 -0.939693 0   
     length 7.43932   
     axis 0 0 -20   XYZ
    dof rx ry rz
    limits (-160.0 20.0)
           (-70.0 70.0)
           (-70.0 60.0)
  end
  begin
     id 8 
     name rtibia
     direction -0.34202 -0.939693 0   
     length 7.11893   
     axis 0 0 -20   XYZ
    dof rx
    limits (-10.0 170.0)
 end
 begin
     id 9 
     name rfoot
     direction -0.131771 -0.362037 0.922803   
     length 2.53019  
     axis -90 -7.62852e-016 -20   XYZ
    dof rx rz
    limits (-45.0 90.0)
           (-20.0 70.0)
  end
  begin
     id 10 
     name rtoes
     direction -1.53733e-011 -4.21932e-011 1   
     length 1.24596   
     axis -90 -7.62852e-016 -20   XYZ
    dof rx
    limits (-90.0 20.0)
  end
  begin
     id 11 
     name lowerback
     direction 0.0235427 0.999023 -0.0374125   
     length 2.21768   
     axis 0 0 0   XYZ
    dof rx ry rz
    limits (-20.0 45.0)
           (-30.0 30.0)
           (-30.0 30.0)
  end
  begin
     id 12 
     name upperback
     direction 0.0302156 0.996818 -0.073759   
     length 2.20352   
     axis 0 0 0   XYZ
    dof rx ry rz
    limits (-20.0 45.0)
           (-30.0 30.0)
           (-30.0 30.0)
  end
  begin
     id 13 
     name thorax
     direction 0.0187169 0.998235 -0.0563532   
     length 2.22103   
     axis 0 0 0   XYZ
    dof rx ry rz
    limits (-20.0 45.0)
           (-30.0 30.0)
           (-30.0 30.0)
  end
  begin
     id 14 
     name lowerneck
     direction -0.119528 0.987423 0.103481   
     length 1.72948   
     axis 0 0 0   XYZ
    dof rx ry rz
    limits (-20.0 45.0)
           (-30.0 30.0)
           (-30.0 30.0)
  end
  begin
     id 15 
     name upperneck
     direction 0.248049 0.963095 -0.104496   
     length 1.74979   
     axis 0 0 0   XYZ
    dof rx ry rz
    limits (-20.0 45.0)
           (-30.0 30.0)
           (-30.0 30.0)
  end
  begin
     id 16
     name head
     direction 0.0903589 0.994284 -0.056876  
     length 1.78268  
     axis 0 0 0   XYZ
    dof rx ry rz
    limits (-20.0 45.0)
           (-30.0 30.0)
           (-30.0 30.0)
  end
  begin
     id 17 
     name lclavicle
     direction 0.946008 0.242039 -0.215608  
     length 3.80783  
     axis 0 0 0   XYZ
    dof ry rz
    limits (-20.0 10.0)
           (0.0 20.0)
  end
  begin
     id 18 
     name lhumerus
     direction 1 -4.48991e-011 -2.25695e-027   
     length 4.83125   
     axis 180 -30 -90   XYZ
    dof rx ry rz
    limits (-60.0 90.0)
           (-90.0 90.0)
           (-90.0 90.0)
  end
  begin
     id 19
     name lradius
     direction 0.999991 0.00366712 -0.00211721   
     length 3.00391   
     axis 180 -30 -90   XYZ
    dof rx
    limits (-10.0 170.0)
  end
  begin
     id 20
     name lwrist
     direction 0.999991 0.00393016 -0.00141978   
     length 1.50195   
     axis -1.00488e-014 90 90   XYZ
    dof ry
    limits (-180.0 0.0)
 end
  begin
     id 21 
     name lhand
     direction 1 -4.49123e-011 2.72098e-026   
     length 1.2717   
     axis -1.73687e-014 90 90   XYZ
    dof rx rz
    limits (-90.0 90.0)
           (-45.0 45.0)
  end
  begin
     id 22 
     name lfingers
     direction 1 -4.48678e-011 5.4479e-026   
     length 1.02528   
     axis -3.47372e-014 90 90   XYZ
    dof rx
    limits (0.0 90.0)
  end
  begin
     id 23
     name lthumb
     direction 0.707107 -6.34851e-011 0.707107   
     length 1.4721   
     axis -90 45 -1.62303e-014   XYZ
    dof rx rz
    limits (-45.0 45.0)
           (-45.0 45.0)
  end
  begin
     id 24 
     name rclavicle
     direction -0.981723 0.189447 -0.0181673   
     length 3.74989  
     axis 0 0 0   XYZ 
    dof ry rz
    limits (-10.0 20.0)
           (-20.0 0.0)
  end
  begin
     id 25 
     name rhumerus
     direction -1 -4.48985e-011 2.38206e-027  
     length 4.61118   
     axis 180 30 90   XYZ
    dof rx ry rz
    limits (-90.0 60.0)
           (-90.0 90.0)
           (-90.0 90.0)
  end
  begin
     id 26 
     name rradius
     direction -1 -4.48977e-011 7.41019e-027   
     length 2.91491   
     axis 180 30 90   XYZ
    dof rx
    limits (-10.0 170.0)
  end
  begin
     id 27 
     name rwrist
     direction -1 -4.48549e-011 1.3624e-026   
     length 1.45745   
     axis -1.00488e-014 -90 -90   XYZ
    dof ry
    limits (-180.0 0.0)
  end
  begin
     id 28
     name rhand
     direction -1 -4.49107e-011 2.72109e-026   
     length 1.30769   
     axis -1.73687e-014 -90 -90   XYZ
    dof rx rz
    limits (-90.0 90.0)
           (-45.0 45.0)
  end
  begin
     id 29
     name rfingers
     direction -1 -4.48919e-011 5.44468e-026   
     length 1.05429   
     axis -3.47372e-014 -90 -90   XYZ
    dof rx
    limits (0.0 90.0)
  end
  begin
     id 30
     name rthumb
     direction -0.707107 -6.35315e-011 0.707107   
     length 1.51376   
     axis -90 -45 1.62303e-014   XYZ
    dof rx rz
    limits (-45.0 45.0)
           (-45.0 45.0)
  end
:hierarchy
  begin
    root lhipjoint rhipjoint lowerback
    lhipjoint lfemur
    lfemur ltibia
    ltibia lfoot
    lfoot ltoes
    rhipjoint rfemur
    rfemur rtibia
    rtibia rfoot
    rfoot rtoes
    lowerback upperback
    upperback thorax
    thorax lowerneck lclavicle rclavicle
    lowerneck upperneck
    upperneck head
    lclavicle lhumerus
    lhumerus lradius
    lradius lwrist
    lwrist lhand lthumb
    lhand lfingers
    rclavicle rhumerus
    rhumerus rradius
    rradius rwrist
    rwrist rhand rthumb
    rhand rfingers
  end

#!OML:ASF X:\für Bonn\!DataBase\2005_08_11_Bastian_Final\c3d\Bastian.ASF
:FULLY-SPECIFIED
:DEGREES
1
root 3.84127 15.6584 -1.10339 1075.66 1.68019 -3.95101
lowerback 17.8688 0.187088 0.672769
upperback 6.31022 0.376364 0.264201
thorax -3.24851 0.190455 -0.178579
lowerneck -14.2758 -5.62769 -6.20701
upperneck -8.41142 -6.38826 9.38501
head 0.309318 -2.94529 3.87817
rclavicle -7.55382e-015 5.96354e-015
rhumerus -44.052 2.05271 -88.6326
rradius 36.9023
rwrist 4.75407
rhand -26.6031 15.4571
rfingers 7.12502
rthumb -0.0367046 -14.5227
lclavicle -7.55382e-015 5.96354e-015
lhumerus -31.3967 6.70125 79.8672
lradius 50.0378
lwrist -173.235
lhand -19.3921 3.11866
lfingers 7.12502
lthumb 6.92662 32.9853
rfemur -29.2408 -2.2066 29.233
rtibia 67.0729
rfoot -25.9869 2.67938
rtoes 9.79365
lfemur -25.5996 2.88447 -14.4207
ltibia 66.4134
lfoot -25.3325 -16.683
ltoes -1.16879
2
root 3.84136 15.5925 -0.792077 1075.58 1.89692 -4.01129
lowerback 17.3552 -0.0119739 0.710993
upperback 6.06485 0.12138 0.308714
thorax -3.24157 0.0640662 -0.101475
lowerneck -13.5848 -5.42995 -6.26858
upperneck -9.35787 -6.0906 9.56785
head -0.136705 -2.81856 4.00245
rclavicle -1.17283e-014 -8.34896e-015
rhumerus -44.4427 2.10667 -88.5142
rradius 37.0499
rwrist 5.49614
rhand -26.6765 15.4532
rfingers 7.12502
rthumb -0.107686 -14.5265
lclavicle -1.17283e-014 -8.34896e-015
lhumerus -31.5201 6.0209 80.2042
lradius 50.6231
lwrist -173.311
lhand -19.5006 2.87168
lfingers 7.12502
lthumb 6.82196 32.7418
rfemur -28.3884 -2.33884 29.4522
rtibia 68.2071
rfoot -27.7248 2.17396
rtoes 10.2689
lfemur -24.7397 2.70182 -14.2181
ltibia 67.4757
lfoot -26.7568 -17.2163
ltoes 0.358189
3
root 3.84074 15.571 -0.477847 1075.55 2.08646 -4.07308
lowerback 16.6434 -0.213162 0.738457
upperback 5.80339 -0.141108 0.360042
thorax -3.14497 -0.0661477 -0.0128255
lowerneck -13.3086 -5.22311 -6.34315
upperneck -9.57711 -5.80214 9.66371
head -0.273719 -2.67971 4.07822
rclavicle 7.15625e-015 -6.36111e-015
rhumerus -45.0842 2.35367 -88.471
rradius 37.4795
rwrist 5.97061
rhand -26.6726 15.6677
rfingers 7.12502
rthumb -0.103849 -14.3121
lclavicle 7.15625e-015 -6.36111e-015
lhumerus -31.7338 5.28026 80.5338
lradius 51.2457
lwrist -173.002
lhand -19.7489 2.56874
lfingers 7.12502
lthumb 6.58224 32.4464
rfemur -27.262 -2.68561 29.5878
rtibia 68.7563
rfoot -28.8249 2.0145
rtoes 10.3614
lfemur -23.6437 2.55385 -14.0276
ltibia 67.9795
lfoot -28.056 -17.4525
ltoes -0.617646
4
root 3.84082 15.5901 -0.160393 1075.59 2.25503 -4.13588
lowerback 15.6873 -0.395812 0.785615
upperback 5.56084 -0.381589 0.391737
thorax -2.89563 -0.1851 0.0342464
lowerneck -13.6559 -5.05811 -6.37442
upperneck -8.98794 -5.59313 9.6895
head -0.0339542 -2.55933 4.09061
rclavicle 6.16232e-015 -4.37326e-015
rhumerus -45.8307 2.63559 -88.5048
rradius 38.1114
rwrist 6.36138
rhand -26.6084 15.861
rfingers 7.12502
rthumb -0.0418545 -14.1188
lclavicle 6.16232e-015 -4.37326e-015
lhumerus -31.9135 4.58903 80.8317
lradius 51.8539
lwrist -172.487
lhand -20.1044 2.31922
lfingers 7.12502
lthumb 6.23899 32.2073
rfemur -25.8556 -3.24446 29.6217
rtibia 68.6603
rfoot -29.5127 2.28584
rtoes 9.70352
lfemur -22.3246 2.34873 -13.8461
ltibia 67.9023
lfoot -28.9741 -17.5684
ltoes -1.68156
5
root 3.84053 15.6552 0.158266 1075.63 2.3908 -4.16359
lowerback 14.6809 -0.566546 0.75977
upperback 5.2756 -0.619033 0.422219
thorax -2.65966 -0.303512 0.114963
lowerneck -14.2091 -4.91793 -6.34661
upperneck -8.06142 -5.4385 9.59136
head 0.351398 -2.46044 4.03962
rclavicle 9.24349e-015 -2.3059e-014
rhumerus -46.7089 3.05406 -88.6085
rradius 38.916
rwrist 6.47354
rhand -26.4667 16.1344
rfingers 7.12502
rthumb 0.0949963 -13.8453
lclavicle 9.24349e-015 -2.3059e-014
lhumerus -32.2217 3.89462 81.0962
lradius 52.4337
lwrist -171.8
lhand -20.5649 2.22352
lfingers 7.12502
lthumb 5.79439 32.1243
rfemur -24.1476 -3.89633 29.5156
rtibia 67.9378
rfoot -29.7697 2.85045
rtoes 8.64891
lfemur -20.6821 2.12826 -13.7151
ltibia 67.1971
lfoot -29.412 -17.4954
ltoes -3.03978
6
root 3.83987 15.7632 0.476412 1075.73 2.50928 -4.2254
lowerback 13.5346 -0.739302 0.787271
upperback 4.9989 -0.855584 0.423856
thorax -2.33585 -0.4211 0.127696
lowerneck -14.8316 -4.77113 -6.24698
upperneck -6.99617 -5.29139 9.45585
head 0.793326 -2.36469 3.96464
rclavicle -1.38155e-014 -1.19271e-015
rhumerus -47.473 3.48924 -88.8304
rradius 39.7368
rwrist 6.41715
rhand -26.2572 16.3698
rfingers 7.12502
rthumb 0.297377 -13.6097
lclavicle -1.38155e-014 -1.19271e-015
lhumerus -32.5477 3.17292 81.3043
lradius 52.9456
lwrist -171.008
lhand -21.036 2.27358
lfingers 7.12502
lthumb 5.33957 32.1863
rfemur -22.2741 -4.60234 29.377
rtibia 66.6599
rfoot -29.5738 3.52082
rtoes 6.78968
lfemur -18.7904 1.87034 -13.5613
ltibia 65.8749
lfoot -29.141 -17.3332
ltoes -4.10564
7
root 3.83695 15.9108 0.802254 1075.88 2.61005 -4.25314
lowerback 12.1802 -0.896998 0.751759
upperback 4.72382 -1.08364 0.425283
thorax -1.89191 -0.535133 0.164553
lowerneck -15.5532 -4.62998 -6.13042
upperneck -5.65019 -5.14708 9.55512
head 1.21116 -2.25606 3.60852
rclavicle -4.96962e-016 -9.14409e-015
rhumerus -48.2219 4.16789 -89.1699
rradius 40.61
rwrist 6.08933
rhand -25.9935 16.535
rfingers 7.12502
rthumb 0.552045 -13.444
lclavicle -4.96962e-016 -9.14409e-015
lhumerus -32.8567 2.39181 81.5088
lradius 53.3649
lwrist -170.155
lhand -21.5278 2.42599
lfingers 7.12502
lthumb 4.86476 32.3501
rfemur -20.2489 -5.2547 29.1576
rtibia 64.9165
rfoot -28.9809 4.17986
rtoes 4.82976
lfemur -16.7117 1.57115 -13.4591
ltibia 63.9796
lfoot -28.3483 -17.0649
ltoes -6.07089
8
root 3.83167 16.091 1.13395 1076.03 2.6733 -4.28091
lowerback 10.7123 -1.04641 0.696532
upperback 4.46661 -1.30387 0.429072
thorax -1.36112 -0.645727 0.203787
lowerneck -15.7957 -4.47137 -6.11257
upperneck -4.53926 -4.99579 9.43629
head 1.56327 -2.16236 3.56348
rclavicle -2.41523e-014 1.82882e-014
rhumerus -48.9476 4.92282 -89.6012
rradius 41.5604
rwrist 5.53571
rhand -25.6974 16.5528
rfingers 7.12502
rthumb 0.838035 -13.4253
lclavicle -2.41523e-014 1.82882e-014
lhumerus -33.0682 1.62624 81.7118
lradius 53.7082
lwrist -169.331
lhand -21.9595 2.69915
lfingers 7.12502
lthumb 4.44791 32.6324
rfemur -18.0211 -6.02193 28.8654
rtibia 62.7814
rfoot -28.032 5.01599
rtoes 2.82437
lfemur -14.5466 1.30499 -13.3697
ltibia 61.6592
lfoot -27.116 -16.7638
ltoes -8.77404
9
root 3.8207 16.2959 1.47101 1076.23 2.71804 -4.2537
lowerback 9.11941 -1.17359 0.514099
upperback 4.21527 -1.50555 0.418438
thorax -0.746685 -0.748696 0.286441
lowerneck -15.8157 -4.3006 -6.06787
upperneck -3.48126 -4.83978 9.32087
head 1.86663 -2.07353 3.52071
rclavicle 2.17669e-014 -7.55382e-015
rhumerus -49.6565 5.6195 -90.0528
rradius 42.546
rwrist 5.02965
rhand -25.3624 16.4408
rfingers 7.12502
rthumb 1.1616 -13.5357
lclavicle 2.17669e-014 -7.55382e-015
lhumerus -33.2788 0.829446 81.8816
lradius 54.1202
lwrist -168.515
lhand -22.3732 2.94838
lfingers 7.12502
lthumb 4.04842 32.8897
rfemur -15.8378 -6.8783 28.4829
rtibia 60.3845
rfoot -26.654 6.01547
rtoes 0.365855
lfemur -12.3625 1.01117 -13.3434
ltibia 59.0782
lfoot -25.4752 -16.3436
ltoes -12.3062
10
root 3.80702 16.5116 1.80872 1076.43 2.75157 -4.18942
lowerback 7.38866 -1.29624 0.258644
upperback 3.99406 -1.70098 0.408546
thorax -0.0158687 -0.85031 0.397812
lowerneck -15.6541 -4.12047 -6.03143
upperneck -2.48445 -4.67328 9.18961
head 2.12399 -1.9858 3.47927
rclavicle -3.23025e-015 1.07344e-014
rhumerus -50.2359 6.26695 -90.5045
rradius 43.4207
rwrist 4.51799
rhand -24.9752 16.2909
rfingers 7.12502
rthumb 1.53549 -13.6833
lclavicle -3.23025e-015 1.07344e-014
lhumerus -33.6528 -0.00676656 82.0528
lradius 54.7963
lwrist -167.71
lhand -22.6684 3.2049
lfingers 7.12502
lthumb 3.76329 33.1514
rfemur -13.6146 -7.48444 28.0931
rtibia 57.7965
rfoot -24.8748 6.86105
rtoes -2.63596
lfemur -10.1706 0.687069 -13.3727
ltibia 56.3505
lfoot -23.2379 -15.7845
ltoes -15.9262
11
root 3.79267 16.7262 2.14347 1076.64 2.74172 -4.06642
lowerback 5.45774 -1.39893 -0.0149903
upperback 3.81149 -1.86183 0.354468
thorax 0.8724 -0.935685 0.457018
lowerneck -15.3443 -3.95998 -6.05255
upperneck -1.53735 -4.52797 9.12529
head 2.3496 -1.91082 3.46928
rclavicle 1.72446e-014 -7.95139e-015
rhumerus -50.6035 6.74428 -90.948
rradius 44.1266
rwrist 4.20335
rhand -24.6125 15.9705
rfingers 7.12502
rthumb 1.88578 -14.0009
lclavicle 1.72446e-014 -7.95139e-015
lhumerus -34.1725 -0.941829 82.1982
lradius 55.7216
lwrist -166.85
lhand -22.8028 3.44652
lfingers 7.12502
lthumb 3.63349 33.3953
rfemur -11.471 -7.78494 27.7139
rtibia 55.1247
rfoot -22.7033 7.46921
rtoes -6.23448
lfemur -8.06923 0.373377 -13.4923
ltibia 53.5729
lfoot -20.182 -15.0957
ltoes -19.8484
12
root 3.77374 16.9832 2.48566 1076.89 2.72497 -3.85012
lowerback 3.38603 -1.50316 -0.41406
upperback 3.65217 -2.01422 0.298869
thorax 1.87563 -1.02089 0.57158
lowerneck -14.9258 -3.79803 -6.14142
upperneck -0.603243 -4.37245 9.05526
head 2.55493 -1.83441 3.47136
rclavicle -2.03754e-015 -6.75868e-015
rhumerus -50.9753 7.18772 -91.3528
rradius 44.8259
rwrist 4.04734
rhand -24.2748 15.6388
rfingers 7.12502
rthumb 2.21196 -14.3295
lclavicle -2.03754e-015 -6.75868e-015
lhumerus -34.7599 -1.79583 82.3659
lradius 56.8542
lwrist -165.981
lhand -22.8595 3.63335
lfingers 7.12502
lthumb 3.57881 33.5831
rfemur -9.36872 -7.92331 27.2618
rtibia 52.3385
rfoot -19.9804 7.99748
rtoes -9.2246
lfemur -6.05668 0.00312237 -13.7436
ltibia 50.7104
lfoot -16.4458 -14.4484
ltoes -23.8763
13
root 3.75292 17.2741 2.83243 1077.19 2.71705 -3.66627
lowerback 1.24269 -1.60781 -0.759049
upperback 3.50136 -2.14694 0.238488
thorax 2.93474 -1.09684 0.640105
lowerneck -14.4165 -3.6585 -6.26757
upperneck 0.273353 -4.24395 9.04241
head 2.733 -1.77305 3.49714
rclavicle -9.19379e-015 3.97569e-015
rhumerus -51.4865 7.57358 -91.7853
rradius 45.6599
rwrist 3.8663
rhand -23.9701 15.2374
rfingers 7.12502
rthumb 2.50622 -14.7276
lclavicle -9.19379e-015 3.97569e-015
lhumerus -35.3577 -2.68645 82.5634
lradius 58.0977
lwrist -165.013
lhand -22.7817 3.77312
lfingers 7.12502
lthumb 3.65388 33.7215
rfemur -7.4258 -7.76231 26.9136
rtibia 49.5458
rfoot -16.3482 8.48884
rtoes -11.3566
lfemur -4.24942 -0.563037 -14.0184
ltibia 47.8643
lfoot -11.8098 -13.7303
ltoes -26.3475
